<svg width="24" height="24" viewBox="0 0 24 24" fill="none" xmlns="http://www.w3.org/2000/svg">
<path d="M12 6.2069C12 4.98806 12.988 4 14.2069 4H18.8966C19.506 4 20 4.49404 20 5.10345L20 16.8966C20 17.506 19.506 18 18.8966 18H16.0352C14.8646 18 13.7419 18.2581 12.9141 19.0859L12 20M12 6.2069V20M12 6.2069C12 4.98806 11.012 4 9.79311 4H5.10345C4.49404 4 4 4.49404 4 5.10345L4 16.8966C4 17.506 4.49404 18 5.10345 18H7.96486C9.13546 18 10.2581 18.2581 11.0859 19.0859L12 20" stroke="white" stroke-width="2" stroke-linecap="round" stroke-linejoin="round"/>
</svg>
