<svg width="24" height="24" viewBox="0 0 24 24" fill="none" xmlns="http://www.w3.org/2000/svg">
<path d="M19.9893 18C19.9893 19.1046 19.0938 20 17.9893 20V20H16.9893H15.9893H5.98926C5.45882 20 4.95012 19.6647 4.57504 19.2926C4.19997 18.9205 3.98926 18.4158 3.98926 17.8895V5.98422C3.98926 5.45797 4.19997 4.95328 4.57504 4.58116C4.95012 4.20905 5.45882 4 5.98926 4H17.9893C18.5197 4 19.0284 4.20905 19.4035 4.58116C19.7785 4.95328 19.9893 5.45797 19.9893 5.98422V18V18ZM11.9893 8.60339C9.84526 8.60339 8.34126 9.51613 8.34126 9.51613C9.16526 8.78594 10.6053 8.36528 10.6053 8.36528L10.4693 8.23036C9.11726 8.25417 7.89326 9.18278 7.89326 9.18278C6.51726 12.0321 6.60526 14.4926 6.60526 14.4926C7.72526 15.9291 9.38926 15.8259 9.38926 15.8259L9.95726 15.1116C8.95726 14.8973 8.32526 14.0163 8.32526 14.0163C8.32526 14.0163 9.82926 15.0323 11.9893 15.0323C14.1493 15.0323 15.6533 14.0163 15.6533 14.0163C15.6533 14.0163 15.0213 14.8973 14.0213 15.1116L14.5893 15.8259C14.5893 15.8259 16.2533 15.9291 17.3733 14.4926C17.3733 14.4926 17.4613 12.0321 16.0853 9.18278C16.0853 9.18278 14.8613 8.25417 13.5093 8.23036L13.3733 8.36528C13.3733 8.36528 14.8133 8.78594 15.6373 9.51613C15.6373 9.51613 14.1333 8.60339 11.9893 8.60339ZM10.3333 11.6115C10.8533 11.6115 11.2773 12.0639 11.2693 12.6194C11.2693 13.1671 10.8533 13.6274 10.3333 13.6274C9.82126 13.6274 9.40526 13.1671 9.40526 12.6194C9.40526 12.0639 9.81326 11.6115 10.3333 11.6115ZM13.6693 11.6115C14.1893 11.6115 14.6053 12.0639 14.6053 12.6194C14.6053 13.1671 14.1893 13.6274 13.6693 13.6274C13.1573 13.6274 12.7413 13.1671 12.7413 12.6194C12.7413 12.0639 13.1493 11.6115 13.6693 11.6115Z" fill="white"/>
</svg>
