<svg width="24" height="24" viewBox="0 0 24 24" fill="none" xmlns="http://www.w3.org/2000/svg">
<rect width="24" height="24" rx="12" fill="#050A20"/>
<path fill-rule="evenodd" clip-rule="evenodd" d="M17.3068 5.27905C15.799 4.0748 13.9262 3.41245 11.9918 3.41245C10.0588 3.41846 8.19302 4.0802 6.69181 5.27747L4.25539 2.84105C8.71856 -0.947658 15.2745 -0.947017 19.7428 2.84297L17.3068 5.27905ZM18.7254 6.68887C20.8604 9.38913 21.1752 13.1429 19.4671 16.1789L14.6638 11.543L13.0001 7.21583V14.9177L17.2908 18.7516C14.2002 21.1759 9.8541 21.1759 6.76351 18.7516L11.0001 14.9661V7.35265L9.38407 11.543L4.57434 16.1789C3.87252 14.8958 3.50551 13.458 3.50551 11.9944C3.50551 10.0816 4.14416 8.22658 5.31288 6.72697L2.83155 4.24564C-1.27801 9.10954 -0.885371 16.3951 3.82101 20.7826C6.04237 22.8459 8.95911 24 11.9918 24C18.6108 24.0064 23.9871 18.6419 24 12.0073C24.006 9.15725 22.9956 6.40902 21.1698 4.24446L18.7254 6.68887Z" fill="white"/>
<mask id="mask0_5411_59594" style="mask-type:alpha" maskUnits="userSpaceOnUse" x="0" y="0" width="24" height="24">
<path fill-rule="evenodd" clip-rule="evenodd" d="M17.3068 5.27905C15.799 4.0748 13.9262 3.41245 11.9918 3.41245C10.0588 3.41846 8.19302 4.0802 6.69181 5.27747L4.25539 2.84105C8.71856 -0.947658 15.2745 -0.947017 19.7428 2.84297L17.3068 5.27905ZM18.7254 6.68887C20.8604 9.38913 21.1752 13.1429 19.4671 16.1789L14.6638 11.543L13.0001 7.21583V14.9177L17.2908 18.7516C14.2002 21.1759 9.8541 21.1759 6.76351 18.7516L11.0001 14.9661V7.35265L9.38407 11.543L4.57434 16.1789C3.87252 14.8958 3.50551 13.458 3.50551 11.9944C3.50551 10.0816 4.14416 8.22658 5.31288 6.72697L2.83155 4.24564C-1.27801 9.10954 -0.885371 16.3951 3.82101 20.7826C6.04237 22.8459 8.95911 24 11.9918 24C18.6108 24.0064 23.9871 18.6419 24 12.0073C24.006 9.15725 22.9956 6.40902 21.1698 4.24446L18.7254 6.68887Z" fill="white"/>
</mask>
<g mask="url(#mask0_5411_59594)">
<path d="M18 6.5L21 2.5L17 -1.5H11.5L2 2L6 6L10 5.5L18 6.5Z" fill="#FFA501"/>
</g>
</svg>
