<svg width="222" height="24" viewBox="0 0 222 24" fill="none" xmlns="http://www.w3.org/2000/svg">
<rect width="38" height="24" rx="2" fill="#0E4595"/>
<path fill-rule="evenodd" clip-rule="evenodd" d="M13.3607 16.8852L15.1309 7.19728H17.9623L16.1908 16.8852H13.3607Z" fill="white"/>
<path fill-rule="evenodd" clip-rule="evenodd" d="M26.4205 7.40689C25.8595 7.21062 24.9806 7 23.8829 7C21.0853 7 19.1145 8.31396 19.0978 10.1971C19.082 11.5892 20.5047 12.3657 21.5786 12.8291C22.6807 13.304 23.0512 13.6069 23.046 14.0309C23.039 14.6802 22.1659 14.9769 21.3521 14.9769C20.2188 14.9769 19.6168 14.8301 18.687 14.4684L18.3221 14.3144L17.9247 16.4831C18.586 16.7535 19.8089 16.9879 21.0786 17C24.0548 17 25.9869 15.7011 26.0089 13.6901C26.0196 12.5881 25.2652 11.7494 23.6318 11.058C22.6421 10.6098 22.036 10.3108 22.0425 9.85695C22.0425 9.45426 22.5555 9.02367 23.6639 9.02367C24.5898 9.01025 25.2604 9.19856 25.783 9.39483L26.0367 9.50662L26.4205 7.40689Z" fill="white"/>
<path fill-rule="evenodd" clip-rule="evenodd" d="M33.7084 7.19728H31.5205C30.8428 7.19728 30.3356 7.36979 30.0379 8.00066L25.833 16.879H28.8062C28.8062 16.879 29.2923 15.6852 29.4023 15.4231C29.7272 15.4231 32.6154 15.4273 33.0283 15.4273C33.113 15.7664 33.3728 16.879 33.3728 16.879H36L33.7084 7.19728ZM30.2376 13.4515C30.4718 12.8934 31.3657 10.7434 31.3657 10.7434C31.3489 10.7692 31.5981 10.1825 31.7411 9.81876L31.9325 10.654C31.9325 10.654 32.4746 12.9666 32.5879 13.4515L30.2376 13.4515Z" fill="white"/>
<path fill-rule="evenodd" clip-rule="evenodd" d="M10.9582 7.19728L8.18618 13.8037L7.89084 12.4611C7.37481 10.9134 5.76703 9.23668 3.9696 8.39721L6.50422 16.8697L9.49984 16.8665L13.9573 7.19728H10.9582Z" fill="white"/>
<path fill-rule="evenodd" clip-rule="evenodd" d="M5.60166 7.19728H1.03614L1 7.39884C4.55193 8.20074 6.90221 10.1386 7.87781 12.4671L6.88507 8.01516C6.71368 7.40171 6.21659 7.21865 5.60166 7.19728Z" fill="#F2AE14"/>
<rect x="46" width="38" height="24" rx="2" fill="black"/>
<path d="M69.0564 4.87744H60.9443V19.029H69.0564V4.87744Z" fill="#FF5F00"/>
<path d="M61.4592 11.9539C61.4579 10.591 61.7761 9.24564 62.3896 8.01974C63.003 6.79385 63.8958 5.71951 65.0002 4.87806C63.6325 3.83447 61.99 3.18548 60.2604 3.00526C58.5307 2.82504 56.7837 3.12087 55.2191 3.85893C53.6544 4.597 52.3353 5.74751 51.4124 7.17898C50.4894 8.61046 50 10.2651 50 11.9539C50 13.6426 50.4894 15.2973 51.4124 16.7287C52.3353 18.1602 53.6544 19.3107 55.2191 20.0488C56.7837 20.7868 58.5307 21.0827 60.2604 20.9025C61.99 20.7222 63.6325 20.0732 65.0002 19.0297C63.8958 18.1882 63.003 17.1139 62.3896 15.888C61.7761 14.6621 61.4579 13.3168 61.4592 11.9539Z" fill="#D9222A"/>
<path d="M80 11.9539C80 13.6426 79.5107 15.2972 78.5878 16.7287C77.6649 18.1602 76.3458 19.3107 74.7812 20.0488C73.2166 20.7868 71.4696 21.0827 69.74 20.9025C68.0104 20.7222 66.3679 20.0732 65.0002 19.0297C66.1037 18.1874 66.9957 17.1128 67.6091 15.8871C68.2225 14.6614 68.5412 13.3165 68.5412 11.9539C68.5412 10.5912 68.2225 9.24627 67.6091 8.02057C66.9957 6.79487 66.1037 5.72036 65.0002 4.87806C66.3679 3.83447 68.0104 3.18547 69.74 3.00526C71.4696 2.82504 73.2166 3.12088 74.7812 3.85895C76.3458 4.59702 77.6649 5.74754 78.5878 7.17901C79.5107 8.61049 80 10.2651 80 11.9539Z" fill="#FFA501"/>
<path d="M79.1156 17.5305V17.2408H79.2359V17.1817H78.9294V17.2408H79.0498V17.5305H79.1156ZM79.7106 17.5305V17.1812H79.6167L79.5086 17.4214L79.4005 17.1812H79.3065V17.5305H79.3729V17.267L79.4742 17.4942H79.543L79.6443 17.2664V17.5305H79.7106Z" fill="#F79E1B"/>
<rect x="92" width="38" height="24" rx="2" fill="#2557D6"/>
<path fill-rule="evenodd" clip-rule="evenodd" d="M92.0001 11.267H93.8254L94.237 10.2689H95.1584L95.5689 11.267H99.1603V10.5039L99.4809 11.2702H101.345L101.666 10.4925V11.267H110.591L110.587 9.62866H110.76C110.881 9.63287 110.916 9.64411 110.916 9.84483V11.267H115.532V10.8856C115.904 11.0862 116.484 11.267 117.246 11.267H119.188L119.603 10.2689H120.525L120.931 11.267H124.674V10.3189L125.24 11.267H128.239V5H125.271V5.74014L124.856 5H121.81V5.74014L121.429 5H117.315C116.626 5 116.021 5.09663 115.532 5.36593V5H112.693V5.36593C112.382 5.08837 111.958 5 111.487 5H101.116L100.42 6.61865L99.7052 5H96.4385V5.74014L96.0797 5H93.2937L92 7.97965L92.0001 11.267ZM103.522 10.364H102.427L102.423 6.8448L100.874 10.364H99.9357L98.3826 6.84168V10.364H96.2098L95.7993 9.36175H93.575L93.1603 10.364H92L93.9131 5.8706H95.5003L97.3172 10.1249V5.8706H99.0608L100.459 8.91883L101.743 5.8706H103.522L103.522 10.364ZM95.4336 8.42663L94.7024 6.63531L93.9754 8.42663H95.4336ZM107.882 10.364H104.313V5.8706H107.882V6.80631H105.382V7.61624H107.822V8.53731H105.382V9.43466H107.882V10.364ZM112.909 7.08076C112.909 7.79718 112.434 8.16731 112.157 8.27845C112.39 8.3679 112.59 8.52593 112.685 8.65685C112.836 8.88034 112.862 9.07998 112.862 9.48129V10.364H111.784L111.78 9.79734C111.78 9.52696 111.806 9.13812 111.612 8.92195C111.456 8.76392 111.218 8.72963 110.833 8.72963H109.686V10.364H108.618V5.8706H111.075C111.621 5.8706 112.023 5.8851 112.369 6.08582C112.707 6.28654 112.909 6.57956 112.909 7.08076ZM111.559 7.74864C111.413 7.83823 111.239 7.84121 111.031 7.84121H109.733V6.84316H111.049C111.235 6.84316 111.429 6.85156 111.555 6.92421C111.694 6.98967 111.78 7.129 111.78 7.32145C111.78 7.51783 111.698 7.67586 111.559 7.74864ZM114.622 10.364H113.532V5.8706H114.622V10.364ZM127.276 10.364H125.762L123.737 6.99144V10.364H121.561L121.146 9.36175H118.927L118.523 10.364H117.273C116.754 10.364 116.096 10.2485 115.724 9.86701C115.349 9.48549 115.153 8.96871 115.153 8.15159C115.153 7.48518 115.27 6.87597 115.729 6.39456C116.075 6.03595 116.615 5.8706 117.352 5.8706H118.386V6.83341H117.373C116.983 6.83341 116.763 6.89169 116.551 7.0996C116.369 7.2888 116.244 7.64646 116.244 8.11744C116.244 8.59884 116.339 8.94594 116.538 9.17268C116.702 9.3505 117.001 9.40444 117.282 9.40444H117.762L119.268 5.87073H120.869L122.677 10.1209V5.87073H124.304L126.182 9.00015V5.87073H127.276V10.364ZM120.784 8.42663L120.045 6.63531L119.31 8.42663H120.784Z" fill="white"/>
<path fill-rule="evenodd" clip-rule="evenodd" d="M129.998 17.5392C129.738 17.9208 129.233 18.1142 128.548 18.1142H126.485V17.1504H128.54C128.744 17.1504 128.886 17.1234 128.972 17.0391C129.046 16.9696 129.098 16.8686 129.098 16.746C129.098 16.6151 129.046 16.5111 128.968 16.4488C128.89 16.3802 128.777 16.349 128.591 16.349C127.588 16.3147 126.337 16.3802 126.337 14.9579C126.337 14.306 126.749 13.6198 127.87 13.6198H129.998V12.7256H128.021C127.424 12.7256 126.99 12.8692 126.684 13.0926V12.7256H123.759C123.292 12.7256 122.743 12.8421 122.483 13.0926V12.7256H117.261V13.0926C116.845 12.7912 116.144 12.7256 115.82 12.7256H112.376V13.0926C112.047 12.7725 111.316 12.7256 110.87 12.7256H107.015L106.133 13.6854L105.306 12.7256H99.5478V18.9969H105.198L106.107 18.0219L106.963 18.9969L110.446 19V17.5247H110.789C111.251 17.5319 111.796 17.5132 112.277 17.3042V18.9967H115.149V17.3622H115.288C115.465 17.3622 115.482 17.3696 115.482 17.5472V18.9966H124.209C124.763 18.9966 125.342 18.854 125.663 18.5953V18.9966H128.431C129.007 18.9966 129.57 18.9154 129.998 18.7075V17.5392ZM112.695 15.1278C112.695 16.3764 111.768 16.6341 110.834 16.6341H109.501V18.1417H107.425L106.109 16.6538L104.742 18.1417H100.511V13.6472H104.807L106.122 15.1204L107.481 13.6472H110.894C111.742 13.6472 112.695 13.8831 112.695 15.1278ZM104.201 17.1971H101.575V16.3029H103.92V15.3859H101.575V14.5687H104.253L105.421 15.8785L104.201 17.1971ZM108.433 17.7094L106.793 15.8786L108.433 14.106V17.7094ZM110.859 15.7133H109.478V14.5687H110.871C111.257 14.5687 111.525 14.7268 111.525 15.1198C111.525 15.5085 111.269 15.7133 110.859 15.7133ZM118.092 13.6472H121.657V14.5766H119.156V15.3938H121.596V16.3108H119.156V17.205L121.657 17.2091V18.1417H118.092V13.6472ZM116.722 16.053C116.959 16.1412 117.154 16.2994 117.245 16.4303C117.396 16.6497 117.418 16.8545 117.422 17.2507V18.1417H116.349V17.5793C116.349 17.3089 116.375 16.9086 116.177 16.6996C116.021 16.5386 115.783 16.5001 115.393 16.5001H114.251V18.1417H113.178V13.6472H115.644C116.185 13.6472 116.579 13.6712 116.93 13.8593C117.267 14.0641 117.479 14.3446 117.479 14.8573C117.479 15.5747 117.003 15.9408 116.722 16.053ZM116.116 15.4856C115.974 15.5709 115.797 15.5782 115.589 15.5782H114.291V14.5687H115.607C115.797 14.5687 115.987 14.5728 116.116 14.6499C116.255 14.7227 116.338 14.8619 116.338 15.0542C116.338 15.2465 116.255 15.4015 116.116 15.4856ZM125.76 15.7711C125.968 15.9875 126.08 16.2607 126.08 16.7233C126.08 17.6902 125.479 18.1415 124.402 18.1415H122.321V17.1778H124.393C124.596 17.1778 124.74 17.1508 124.83 17.0665C124.903 16.997 124.956 16.896 124.956 16.7733C124.956 16.6424 124.899 16.5385 124.825 16.4761C124.744 16.4075 124.631 16.3764 124.445 16.3764C123.446 16.3421 122.195 16.4075 122.195 14.9853C122.195 14.3334 122.602 13.6472 123.722 13.6472H125.864V14.6037H123.904C123.71 14.6037 123.584 14.6111 123.476 14.6849C123.359 14.7577 123.316 14.8657 123.316 15.0083C123.316 15.1779 123.415 15.2932 123.549 15.3431C123.662 15.3825 123.783 15.394 123.965 15.394L124.54 15.4096C125.12 15.4238 125.518 15.5247 125.76 15.7711ZM130 14.5687H128.053C127.859 14.5687 127.729 14.5761 127.621 14.6499C127.508 14.7227 127.465 14.8307 127.465 14.9733C127.465 15.1429 127.56 15.2582 127.698 15.3081C127.811 15.3475 127.932 15.359 128.11 15.359L128.689 15.3746C129.273 15.3891 129.663 15.4901 129.901 15.7363C129.944 15.7706 129.97 15.8091 130 15.8476V14.5687Z" fill="white"/>
<g clip-path="url(#clip0_4282_36446)">
<path d="M172.597 0H141.403C141.273 0 141.143 0 141.013 0.000747416C140.904 0.00151748 140.794 0.00271788 140.685 0.00566224C140.446 0.0120266 140.206 0.0259104 139.97 0.0676751C139.731 0.110165 139.508 0.17947 139.291 0.288593C139.077 0.395745 138.882 0.535897 138.712 0.703137C138.543 0.870377 138.401 1.06296 138.292 1.27389C138.182 1.48822 138.111 1.70798 138.069 1.94426C138.026 2.1767 138.012 2.41399 138.005 2.64907C138.003 2.75697 138.001 2.86487 138.001 2.97274C138 3.10096 138 3.22909 138 3.35753V20.6427C138 20.7712 138 20.8991 138.001 21.0275C138.001 21.1354 138.003 21.2433 138.005 21.3512C138.012 21.5861 138.026 21.8234 138.069 22.0557C138.111 22.2921 138.182 22.5118 138.292 22.7261C138.401 22.9371 138.543 23.1299 138.712 23.2969C138.882 23.4644 139.077 23.6045 139.291 23.7114C139.508 23.8208 139.731 23.8902 139.97 23.9326C140.206 23.9741 140.446 23.9882 140.685 23.9946C140.794 23.9971 140.904 23.9985 141.013 23.999C141.143 24 141.273 24 141.403 24H172.597C172.727 24 172.857 24 172.986 23.999C173.096 23.9985 173.205 23.9971 173.315 23.9946C173.553 23.9882 173.794 23.9741 174.03 23.9326C174.269 23.8902 174.491 23.8208 174.709 23.7114C174.923 23.6045 175.118 23.4644 175.287 23.2969C175.457 23.1299 175.599 22.9371 175.708 22.7261C175.818 22.5118 175.889 22.2921 175.931 22.0557C175.974 21.8234 175.988 21.5861 175.994 21.3512C175.997 21.2433 175.998 21.1354 175.999 21.0275C176 20.8991 176 20.7712 176 20.6427V3.35753C176 3.22909 176 3.10096 175.999 2.97274C175.998 2.86487 175.997 2.75697 175.994 2.64907C175.988 2.41399 175.974 2.1767 175.931 1.94426C175.889 1.70798 175.818 1.48822 175.708 1.27389C175.599 1.06296 175.457 0.870377 175.287 0.703137C175.118 0.535897 174.923 0.395745 174.709 0.288593C174.491 0.17947 174.269 0.110165 174.03 0.0676751C173.794 0.0259104 173.553 0.0120266 173.315 0.00566224C173.205 0.00271788 173.096 0.00151748 172.986 0.000747416C172.857 0 172.727 0 172.597 0Z" fill="white"/>
<path d="M172.597 0.799805L172.981 0.800529C173.085 0.801254 173.189 0.802364 173.293 0.805172C173.475 0.810019 173.688 0.819736 173.886 0.854796C174.058 0.885418 174.203 0.931984 174.342 1.00165C174.479 1.0703 174.604 1.16026 174.714 1.26819C174.824 1.37683 174.915 1.50081 174.985 1.63741C175.056 1.77319 175.103 1.91511 175.133 2.08638C175.169 2.27985 175.179 2.49026 175.184 2.67074C175.186 2.77262 175.188 2.8745 175.188 2.97879C175.189 3.10493 175.189 3.23099 175.189 3.35737V20.6426C175.189 20.7689 175.189 20.8948 175.188 21.0236C175.188 21.1255 175.186 21.2273 175.184 21.3294C175.179 21.5096 175.169 21.7199 175.133 21.9157C175.103 22.0846 175.056 22.2265 174.985 22.363C174.915 22.4992 174.824 22.6231 174.714 22.731C174.604 22.8398 174.479 22.9295 174.34 22.9987C174.203 23.0681 174.058 23.1146 173.888 23.1449C173.685 23.1804 173.464 23.1902 173.297 23.1947C173.192 23.197 173.087 23.1984 172.98 23.1989C172.853 23.1999 172.725 23.1999 172.597 23.1999H141.403C141.402 23.1999 141.4 23.1999 141.398 23.1999C141.272 23.1999 141.146 23.1999 141.017 23.1989C140.913 23.1984 140.808 23.1971 140.707 23.1948C140.536 23.1902 140.315 23.1805 140.114 23.1451C139.942 23.1146 139.798 23.0681 139.658 22.9978C139.521 22.9292 139.396 22.8396 139.286 22.7306C139.176 22.6229 139.085 22.4995 139.015 22.363C138.945 22.2267 138.898 22.0843 138.867 21.9134C138.831 21.718 138.821 21.5085 138.816 21.3296C138.813 21.2271 138.812 21.1246 138.812 21.0227L138.811 20.722L138.811 20.6426V3.35737L138.811 3.27796L138.812 2.97784C138.812 2.87536 138.813 2.77289 138.816 2.6705C138.821 2.49132 138.831 2.28177 138.867 2.08477C138.898 1.91538 138.945 1.77301 139.015 1.636C139.085 1.50059 139.176 1.37697 139.286 1.26853C139.396 1.16044 139.521 1.0706 139.659 1.00129C139.797 0.931961 139.942 0.885418 140.114 0.854864C140.312 0.819713 140.525 0.810019 140.707 0.80515C140.811 0.802364 140.915 0.801254 141.018 0.800552L141.403 0.799805H172.597Z" fill="white"/>
<path d="M148.374 8.07201C148.7 7.67053 148.92 7.13144 148.862 6.58057C148.386 6.60393 147.805 6.89057 147.468 7.29237C147.166 7.63645 146.898 8.19811 146.968 8.72589C147.503 8.77164 148.037 8.46224 148.374 8.07201Z" fill="black"/>
<path d="M148.856 8.82874C148.079 8.78311 147.419 9.26349 147.048 9.26349C146.677 9.26349 146.11 8.85173 145.495 8.86283C144.696 8.87441 143.954 9.32029 143.549 10.0294C142.714 11.4481 143.329 13.5524 144.14 14.7078C144.534 15.2794 145.009 15.9088 145.634 15.8862C146.226 15.8633 146.457 15.5086 147.176 15.5086C147.894 15.5086 148.103 15.8862 148.728 15.8748C149.377 15.8633 149.783 15.3029 150.177 14.7307C150.629 14.0791 150.814 13.4499 150.826 13.4154C150.814 13.4039 149.574 12.9347 149.563 11.5279C149.551 10.3499 150.536 9.78961 150.582 9.75486C150.026 8.94325 149.157 8.85173 148.856 8.82874Z" fill="black"/>
<path d="M155.617 7.23487C157.304 7.23487 158.48 8.38251 158.48 10.0534C158.48 11.7302 157.28 12.8838 155.574 12.8838H153.706V15.8153H152.356V7.23486H155.617V7.23487ZM153.706 11.7659H155.255C156.43 11.7659 157.099 11.1416 157.099 10.0594C157.099 8.9772 156.43 8.35876 155.261 8.35876H153.706V11.7659Z" fill="black"/>
<path d="M158.833 14.0373C158.833 12.9431 159.682 12.2713 161.189 12.188L162.925 12.0869V11.6053C162.925 10.9096 162.449 10.4934 161.653 10.4934C160.9 10.4934 160.43 10.8501 160.315 11.4091H159.086C159.158 10.2792 160.134 9.44678 161.702 9.44678C163.239 9.44678 164.221 10.2495 164.221 11.5042V15.8152H162.973V14.7865H162.943C162.576 15.4823 161.774 15.9222 160.942 15.9222C159.701 15.9222 158.833 15.1611 158.833 14.0373ZM162.925 13.4725V12.9789L161.364 13.074C160.586 13.1276 160.146 13.4665 160.146 14.0017C160.146 14.5487 160.605 14.9055 161.304 14.9055C162.214 14.9055 162.925 14.287 162.925 13.4725Z" fill="black"/>
<path d="M165.399 18.1168V17.0762C165.495 17.0999 165.712 17.0999 165.821 17.0999C166.423 17.0999 166.749 16.8502 166.948 16.208C166.948 16.1961 167.062 15.8275 167.062 15.8215L164.772 9.56006H166.182L167.786 14.6501H167.81L169.413 9.56006H170.787L168.412 16.1425C167.87 17.6589 167.243 18.1465 165.929 18.1465C165.821 18.1465 165.495 18.1346 165.399 18.1168Z" fill="black"/>
</g>
<g clip-path="url(#clip1_4282_36446)">
<path d="M218.597 0H187.403C187.273 0 187.143 0 187.013 0.000747416C186.904 0.00151748 186.794 0.00271788 186.685 0.00566224C186.446 0.0120266 186.206 0.0259104 185.97 0.0676751C185.731 0.110165 185.508 0.17947 185.291 0.288593C185.077 0.395745 184.882 0.535897 184.712 0.703137C184.543 0.870377 184.401 1.06296 184.292 1.27389C184.182 1.48822 184.111 1.70798 184.069 1.94426C184.026 2.1767 184.012 2.41399 184.005 2.64907C184.003 2.75697 184.001 2.86487 184.001 2.97274C184 3.10096 184 3.22909 184 3.35753V20.6427C184 20.7712 184 20.8991 184.001 21.0275C184.001 21.1354 184.003 21.2433 184.005 21.3512C184.012 21.5861 184.026 21.8234 184.069 22.0557C184.111 22.2921 184.182 22.5118 184.292 22.7261C184.401 22.9371 184.543 23.1299 184.712 23.2969C184.882 23.4644 185.077 23.6045 185.291 23.7114C185.508 23.8208 185.731 23.8902 185.97 23.9326C186.206 23.9741 186.446 23.9882 186.685 23.9946C186.794 23.9971 186.904 23.9985 187.013 23.999C187.143 24 187.273 24 187.403 24H218.597C218.727 24 218.857 24 218.986 23.999C219.096 23.9985 219.205 23.9971 219.315 23.9946C219.553 23.9882 219.794 23.9741 220.03 23.9326C220.269 23.8902 220.491 23.8208 220.709 23.7114C220.923 23.6045 221.118 23.4644 221.287 23.2969C221.457 23.1299 221.599 22.9371 221.708 22.7261C221.818 22.5118 221.889 22.2921 221.931 22.0557C221.974 21.8234 221.988 21.5861 221.994 21.3512C221.997 21.2433 221.998 21.1354 221.999 21.0275C222 20.8991 222 20.7712 222 20.6427V3.35753C222 3.22909 222 3.10096 221.999 2.97274C221.998 2.86487 221.997 2.75697 221.994 2.64907C221.988 2.41399 221.974 2.1767 221.931 1.94426C221.889 1.70798 221.818 1.48822 221.708 1.27389C221.599 1.06296 221.457 0.870377 221.287 0.703137C221.118 0.535897 220.923 0.395745 220.709 0.288593C220.491 0.17947 220.269 0.110165 220.03 0.0676751C219.794 0.0259104 219.553 0.0120266 219.315 0.00566224C219.205 0.00271788 219.096 0.00151748 218.986 0.000747416C218.857 0 218.727 0 218.597 0Z" fill="white"/>
<path d="M218.597 0.800781L218.98 0.801506C219.084 0.802231 219.188 0.803341 219.293 0.806149C219.475 0.810996 219.687 0.820712 219.886 0.855773C220.058 0.886394 220.202 0.932961 220.341 1.00263C220.478 1.07128 220.604 1.16124 220.713 1.26916C220.823 1.37781 220.914 1.50179 220.985 1.63839C221.055 1.77417 221.102 1.91608 221.133 2.08736C221.168 2.28082 221.178 2.49123 221.183 2.67172C221.186 2.7736 221.187 2.87547 221.188 2.97977C221.189 3.1059 221.189 3.23197 221.189 3.35835V20.6435C221.189 20.7699 221.189 20.8958 221.188 21.0246C221.187 21.1264 221.186 21.2283 221.183 21.3304C221.178 21.5106 221.168 21.7209 221.132 21.9166C221.102 22.0856 221.055 22.2275 220.985 22.364C220.914 22.5002 220.823 22.6241 220.714 22.732C220.603 22.8407 220.478 22.9304 220.34 22.9997C220.202 23.069 220.058 23.1156 219.887 23.1459C219.685 23.1814 219.463 23.1912 219.296 23.1957C219.191 23.198 219.087 23.1994 218.98 23.1999C218.852 23.2009 218.724 23.2009 218.597 23.2009H187.403C187.401 23.2009 187.399 23.2009 187.398 23.2009C187.272 23.2009 187.145 23.2009 187.017 23.1999C186.912 23.1994 186.808 23.198 186.707 23.1958C186.536 23.1912 186.314 23.1814 186.113 23.1461C185.941 23.1156 185.797 23.069 185.658 22.9988C185.52 22.9301 185.395 22.8405 185.285 22.7316C185.176 22.6239 185.085 22.5004 185.015 22.364C184.944 22.2277 184.897 22.0853 184.866 21.9144C184.83 21.719 184.821 21.5095 184.816 21.3305C184.813 21.228 184.812 21.1256 184.811 21.0237L184.811 20.7229L184.811 20.6435V3.35835L184.811 3.27894L184.811 2.97882C184.812 2.87633 184.813 2.77387 184.816 2.67147C184.821 2.4923 184.83 2.28275 184.866 2.08575C184.897 1.91636 184.944 1.77398 185.015 1.63698C185.085 1.50156 185.176 1.37794 185.286 1.2695C185.395 1.16142 185.521 1.07157 185.659 1.00227C185.797 0.932938 185.941 0.886394 186.113 0.855841C186.312 0.82069 186.524 0.810996 186.707 0.806126C186.811 0.803341 186.915 0.802231 187.018 0.801529L187.403 0.800781H218.597Z" fill="white"/>
</g>
<path d="M202.072 11.7772V15.2781H200.965V6.63281H203.899C204.643 6.63281 205.277 6.88164 205.796 7.3793C206.326 7.87695 206.591 8.48455 206.591 9.2021C206.591 9.93701 206.326 10.5446 205.796 11.0365C205.282 11.5283 204.648 11.7714 203.899 11.7714H202.072V11.7772ZM202.072 7.69756V10.7124H203.922C204.36 10.7124 204.729 10.562 205.017 10.2669C205.311 9.97173 205.461 9.61296 205.461 9.20789C205.461 8.80861 205.311 8.45562 205.017 8.1605C204.729 7.8538 204.366 7.70335 203.922 7.70335H202.072V7.69756Z" fill="#232B46"/>
<path d="M209.485 9.16797C210.304 9.16797 210.949 9.38786 211.422 9.82765C211.895 10.2674 212.131 10.8693 212.131 11.6331V15.2787H211.076V14.457H211.03C210.575 15.134 209.964 15.4697 209.203 15.4697C208.551 15.4697 208.009 15.2787 207.571 14.891C207.133 14.5033 206.914 14.023 206.914 13.4443C206.914 12.8309 207.145 12.3449 207.606 11.9861C208.067 11.6215 208.684 11.4421 209.45 11.4421C210.108 11.4421 210.649 11.5637 211.07 11.8067V11.5521C211.07 11.1644 210.92 10.8403 210.615 10.5683C210.309 10.2964 209.952 10.1633 209.543 10.1633C208.926 10.1633 208.436 10.4237 208.079 10.9503L207.104 10.3369C207.64 9.55568 208.436 9.16797 209.485 9.16797ZM208.055 13.4617C208.055 13.751 208.176 13.9941 208.424 14.185C208.666 14.376 208.955 14.4744 209.283 14.4744C209.75 14.4744 210.165 14.3008 210.528 13.9536C210.892 13.6064 211.076 13.2013 211.076 12.7326C210.73 12.4606 210.252 12.3217 209.635 12.3217C209.185 12.3217 208.811 12.4317 208.511 12.6458C208.205 12.8714 208.055 13.1434 208.055 13.4617Z" fill="#232B46"/>
<path d="M218.149 9.35938L214.46 17.8774H213.318L214.69 14.8972L212.258 9.35938H213.463L215.215 13.6068H215.238L216.944 9.35938H218.149Z" fill="#232B46"/>
<path d="M197.669 12.0695C197.669 11.7073 197.637 11.3607 197.577 11.0273H192.938V12.937L195.609 12.9375C195.501 13.5729 195.152 14.1145 194.618 14.4756V15.7146H196.208C197.137 14.8518 197.669 13.5764 197.669 12.0695Z" fill="#4285F4"/>
<path d="M194.619 14.4773C194.176 14.7771 193.606 14.9524 192.939 14.9524C191.65 14.9524 190.557 14.0809 190.166 12.9062H188.525V14.184C189.338 15.8031 191.009 16.9141 192.939 16.9141C194.273 16.9141 195.393 16.4737 196.209 15.7157L194.619 14.4773Z" fill="#34A853"/>
<path d="M190.011 11.9566C190.011 11.6268 190.066 11.3079 190.166 11.0082V9.73047H188.525C188.189 10.4 188 11.1557 188 11.9566C188 12.7575 188.19 13.5132 188.525 14.1827L190.166 12.905C190.066 12.6053 190.011 12.2864 190.011 11.9566Z" fill="#F2AE14"/>
<path d="M192.939 8.96169C193.667 8.96169 194.319 9.21341 194.834 9.70528L196.243 8.29159C195.387 7.49129 194.271 7 192.939 7C191.009 7 189.338 8.11104 188.525 9.73016L190.166 11.0079C190.557 9.83316 191.65 8.96169 192.939 8.96169Z" fill="#E94235"/>
<defs>
<clipPath id="clip0_4282_36446">
<rect width="38" height="24" fill="white" transform="translate(138)"/>
</clipPath>
<clipPath id="clip1_4282_36446">
<rect width="38" height="24" fill="white" transform="translate(184)"/>
</clipPath>
</defs>
</svg>
